<?xml version="1.0" encoding="iso-8859-1"?>
<!-- Uploaded to: SVG Repo, www.svgrepo.com, Generator: SVG Repo Mixer Tools -->
<svg fill="#000000" version="1.1" id="Layer_1" xmlns="http://www.w3.org/2000/svg" xmlns:xlink="http://www.w3.org/1999/xlink" 
	 viewBox="0 0 512 512" xml:space="preserve">
<g>
	<g>
		<path d="M455.344,295.175v-53.957l49.311-72V134.65h-16.787V63.306h-171.09l-48,47.213h-35.861v184.656h-80.787v-16.787h24.131
			v-31.475h-15.738v15.738h-8.393v-47.213h-15.738v24.131H128v-9.443h-15.738v25.18h24.131v39.869H55.607v-16.787h24.131v-31.475H64
			v15.738h-8.393v-47.213H39.869v24.131h-7.344v-9.443H16.787v25.18h23.082v39.869H0v15.738h512v-15.738H455.344z M439.607,295.175
			H304.262v-48.98l-7.126-47.545h31.257v-39.869h-15.738v24.131h-33.792l9.661,64.455v47.807h-39.869V182.913H256v-15.738h-7.344
			v-8.393h23.082v-15.738h-23.082v-16.787h26.565l37.435-36.821v53.608h15.738v-64h143.738v55.607h-47.213v15.738h64v13.957
			l-49.311,72V295.175z"/>
	</g>
</g>
<g>
	<g>
		<rect x="382.951" y="174.52" width="32.525" height="15.738"/>
	</g>
</g>
<g>
	<g>
		<rect x="352.525" y="190.258" width="30.426" height="15.738"/>
	</g>
</g>
<g>
	<g>
		<polygon points="43.39,430.519 53.564,420.345 42.436,409.218 32,419.654 21.564,409.218 10.436,420.345 20.61,430.519 0,430.519 
			0,446.257 72.393,446.257 72.393,430.519 		"/>
	</g>
</g>
<g>
	<g>
		<polygon points="306.996,374.912 317.564,364.345 306.436,353.218 296,363.654 285.564,353.218 274.436,364.345 285.004,374.912 
			263.344,374.912 263.344,390.65 335.738,390.65 335.738,374.912 		"/>
	</g>
</g>
<g>
	<g>
		<rect x="335.738" y="390.651" width="56.656" height="15.738"/>
	</g>
</g>
<g>
	<g>
		<rect x="424.918" y="366.52" width="14.689" height="15.738"/>
	</g>
</g>
<g>
	<g>
		<path d="M183.591,374.912c-2.039-15.79-15.423-27.672-31.591-27.672c-16.168,0-29.552,11.882-31.591,27.672H96.525v15.738h102.82
			v-15.738H183.591z M136.396,374.912c1.792-7.162,8.099-11.934,15.604-11.934s13.812,4.773,15.604,11.934H136.396z"/>
	</g>
</g>
<g>
	<g>
		<rect x="79.738" y="399.045" width="16.787" height="15.738"/>
	</g>
</g>
<g>
	<g>
		<rect x="103.869" y="423.176" width="152.131" height="15.738"/>
	</g>
</g>
<g>
	<g>
		<rect x="256" y="438.914" width="24.131" height="15.738"/>
	</g>
</g>
<g>
	<g>
		<rect x="136.393" y="463.045" width="55.607" height="15.738"/>
	</g>
</g>
<g>
	<g>
		<rect x="439.607" y="350.782" width="72.393" height="15.738"/>
	</g>
</g>
<g>
	<g>
		<rect x="415.475" y="455.7" width="56.656" height="15.738"/>
	</g>
</g>
<g>
	<g>
		<rect x="472.131" y="438.914" width="39.869" height="15.738"/>
	</g>
</g>
<g>
	<g>
		<rect x="335.738" y="430.52" width="16.787" height="15.738"/>
	</g>
</g>
<g>
	<g>
		<rect x="216.131" y="335.045" width="15.738" height="15.738"/>
	</g>
</g>
<g>
	<g>
		<rect y="326.651" width="47.213" height="15.738"/>
	</g>
</g>
<g>
	<g>
		<rect x="47.213" y="343.438" width="16.787" height="15.738"/>
	</g>
</g>
<g>
	<g>
		<polygon points="82.436,33.218 72,43.654 61.564,33.218 50.436,44.345 72,65.91 93.564,44.345 		"/>
	</g>
</g>
<g>
	<g>
		<polygon points="139.635,72.234 119.435,85.701 91.519,71.743 84.481,85.819 120.565,103.862 148.365,85.328 		"/>
	</g>
</g>
</svg>