<?xml version="1.0" ?>
<!-- Uploaded to: SVG Repo, www.svgrepo.com, Generator: SVG Repo Mixer Tools -->
<svg width="800px" height="800px" viewBox="0 0 64 64" xmlns="http://www.w3.org/2000/svg">
<defs>
<style>.cls-1{fill:none;stroke:#000000;stroke-linecap:round;stroke-linejoin:round;stroke-width:2px;}</style>
</defs>
<g id="sold-out">
<rect class="cls-1" height="27" width="51" x="5" y="13"/>
<rect class="cls-1" height="6" rx="1.3178" width="4" x="34" y="18"/>
<rect class="cls-1" height="6" rx="1.3178" width="4" x="27" y="28"/>
<path class="cls-1" d="M38,28v4.6822A1.3178,1.3178,0,0,1,36.6822,34H35.3178A1.3178,1.3178,0,0,1,34,32.6822V28"/>
<polyline class="cls-1" points="31 18 27 18 27 21 31 21 31 24 27 24"/>
<circle class="cls-1" cx="15.5" cy="26.5" r="6.5"/>
<line class="cls-1" x1="28" x2="28" y1="40.2662" y2="61"/>
<line class="cls-1" x1="33" x2="33" y1="61" y2="40.2974"/>
<line class="cls-1" x1="18" x2="13" y1="24" y2="29"/>
<line class="cls-1" x1="13" x2="18" y1="24" y2="29"/>
<line class="cls-1" x1="42.9933" x2="40.0453" y1="5.1631" y2="8.1112"/>
<line class="cls-1" x1="40.0453" x2="42.9933" y1="5.1631" y2="8.1112"/>
<polyline class="cls-1" points="41 18 41 24 44 24"/>
<path class="cls-1" d="M47,18h2.7492A1.2508,1.2508,0,0,1,51,19.2508v3.4985A1.2508,1.2508,0,0,1,49.7492,24H47a0,0,0,0,1,0,0V18A0,0,0,0,1,47,18Z"/>
<line class="cls-1" x1="43" x2="43" y1="34" y2="28"/>
<line class="cls-1" x1="41" x2="45" y1="28" y2="28"/>
</g>
</svg>